<svg width="24" height="24" viewBox="0 0 24 24" fill="none" xmlns="http://www.w3.org/2000/svg">
<path d="M12 21C11.8734 21 11.7478 20.9682 11.6334 20.9044C11.235 20.6813 1.875 15.3619 1.875 8.62503C1.875 5.52378 4.39875 3.00003 7.5 3.00003C9.30281 3.00003 10.9556 3.85128 12.0009 5.24815C13.5075 3.24003 16.2422 2.42346 18.6638 3.43315C20.7666 4.30971 22.125 6.34784 22.125 8.62503C22.125 15.3619 12.765 20.6813 12.3666 20.9044C12.2531 20.9682 12.1266 21 12 21ZM7.5 4.50003C5.22562 4.50003 3.375 6.35065 3.375 8.62503C3.375 13.7963 10.3106 18.3469 12 19.3782C13.6894 18.3469 20.625 13.7963 20.625 8.62503C20.625 6.9544 19.6284 5.46003 18.0862 4.8169C17.0691 4.39315 15.9478 4.39034 14.9288 4.81034C13.9097 5.23034 13.1156 6.02065 12.6919 7.03784C12.5756 7.31721 12.3019 7.49909 12 7.49909C11.6981 7.49909 11.4244 7.31721 11.3081 7.03784C10.6659 5.49565 9.17062 4.49909 7.5 4.49909V4.50003Z" fill="white" fill-opacity="0.5"/>
</svg>
