<svg width="25" height="25" viewBox="0 0 25 25" fill="none" xmlns="http://www.w3.org/2000/svg">
<path d="M22.8582 13.4769C24.27 11.9558 25.0372 9.94645 24.9986 7.87129C24.96 5.79614 24.1186 3.81675 22.6512 2.34914C21.1838 0.881528 19.2047 0.0399882 17.1299 0.00138872C15.055 -0.0372108 13.046 0.730136 11.525 2.14215L11.4897 2.16574C11.4779 2.17754 11.4661 2.18933 11.4661 2.20113C9.97643 3.69904 9.14103 5.72635 9.14284 7.83903C9.14254 8.18623 9.16618 8.53303 9.2136 8.87697L0.274468 21.061C0.0741053 21.3339 -0.0217945 21.6696 0.0041704 22.0072C0.0301353 22.3448 0.176244 22.6619 0.415985 22.901L2.10239 24.5876C2.34264 24.8252 2.65941 24.9699 2.9963 24.9958C3.33319 25.0217 3.66834 24.9272 3.94211 24.7292L16.1243 15.7887C16.4682 15.8361 16.815 15.8598 17.1621 15.8595C19.2745 15.8613 21.3015 15.0258 22.7992 13.5359L22.8346 13.5123L22.8582 13.4769ZM24.238 7.83903C24.2391 9.55422 23.6143 11.2109 22.4808 12.498L12.5039 2.51958C13.5248 1.61984 14.7839 1.03418 16.1297 0.833C17.4756 0.631824 18.8508 0.823699 20.0902 1.38556C21.3296 1.94742 22.3804 2.85534 23.1162 4.00019C23.852 5.14503 24.2415 6.47807 24.238 7.83903ZM3.38783 23.9625C3.29687 24.0293 3.18498 24.0613 3.07247 24.0526C2.95995 24.044 2.85427 23.9952 2.7746 23.9153L1.08819 22.2287C1.00828 22.149 0.959572 22.0433 0.950917 21.9307C0.942262 21.8182 0.974229 21.7063 1.04102 21.6153L9.47305 10.1154C9.85449 11.3966 10.5492 12.5625 11.4943 13.5077C12.4394 14.453 13.6051 15.1477 14.8861 15.5292L3.38783 23.9625ZM10.0863 7.83903C10.0851 6.12384 10.7099 4.4672 11.8435 3.18009L21.8204 13.1585C20.7994 14.0582 19.5403 14.6439 18.1945 14.8451C16.8487 15.0462 15.4734 14.8544 14.234 14.2925C12.9946 13.7306 11.9438 12.8227 11.208 11.6779C10.4722 10.533 10.0827 9.2 10.0863 7.83903ZM9.47305 15.5292C9.51727 15.5721 9.55243 15.6234 9.57644 15.6802C9.60045 15.7369 9.61282 15.7979 9.61282 15.8595C9.61282 15.9211 9.60045 15.9821 9.57644 16.0388C9.55243 16.0955 9.51727 16.1469 9.47305 16.1897L8.05788 17.6051C8.01501 17.6493 7.96368 17.6845 7.90696 17.7085C7.85024 17.7325 7.78927 17.7449 7.72768 17.7449C7.66608 17.7449 7.60511 17.7325 7.54839 17.7085C7.49167 17.6845 7.44035 17.6493 7.39747 17.6051C7.35325 17.5622 7.31809 17.5109 7.29408 17.4542C7.27007 17.3974 7.2577 17.3365 7.2577 17.2749C7.2577 17.2133 7.27007 17.1523 7.29408 17.0955C7.31809 17.0388 7.35325 16.9875 7.39747 16.9446L8.81264 15.5292C8.85551 15.485 8.90684 15.4498 8.96356 15.4258C9.02028 15.4018 9.08125 15.3894 9.14284 15.3894C9.20444 15.3894 9.2654 15.4018 9.32213 15.4258C9.37885 15.4498 9.43017 15.485 9.47305 15.5292Z" fill="#FF0054"/>
</svg>
