<svg width="24" height="24" viewBox="0 0 24 24" fill="none" xmlns="http://www.w3.org/2000/svg">
<path d="M19.1904 4.8501H21.2504" stroke="white" stroke-opacity="0.7" stroke-width="1.5" stroke-linecap="round" stroke-linejoin="round"/>
<path d="M2.75 4.8501H15.08" stroke="white" stroke-opacity="0.7" stroke-width="1.5" stroke-linecap="round" stroke-linejoin="round"/>
<path d="M17.1401 6.89006C18.2778 6.89006 19.2001 5.97672 19.2001 4.85006C19.2001 3.7234 18.2778 2.81006 17.1401 2.81006C16.0024 2.81006 15.0801 3.7234 15.0801 4.85006C15.0801 5.97672 16.0024 6.89006 17.1401 6.89006Z" stroke="white" stroke-opacity="0.7" stroke-width="1.5" stroke-linecap="round" stroke-linejoin="round"/>
<path d="M19.1904 19.15H21.2504" stroke="white" stroke-opacity="0.7" stroke-width="1.5" stroke-linecap="round" stroke-linejoin="round"/>
<path d="M2.75 19.15H15.08" stroke="white" stroke-opacity="0.7" stroke-width="1.5" stroke-linecap="round" stroke-linejoin="round"/>
<path d="M17.1401 21.1901C18.2778 21.1901 19.2001 20.2768 19.2001 19.1501C19.2001 18.0234 18.2778 17.1101 17.1401 17.1101C16.0024 17.1101 15.0801 18.0234 15.0801 19.1501C15.0801 20.2768 16.0024 21.1901 17.1401 21.1901Z" stroke="white" stroke-opacity="0.7" stroke-width="1.5" stroke-linecap="round" stroke-linejoin="round"/>
<path d="M8.91992 12H21.2499" stroke="white" stroke-opacity="0.7" stroke-width="1.5" stroke-linecap="round" stroke-linejoin="round"/>
<path d="M2.75 12H4.81" stroke="white" stroke-opacity="0.7" stroke-width="1.5" stroke-linecap="round" stroke-linejoin="round"/>
<path d="M6.8598 14.0401C7.99751 14.0401 8.91983 13.1267 8.91983 12.0001C8.91983 10.8734 7.99751 9.96008 6.8598 9.96008C5.7221 9.96008 4.7998 10.8734 4.7998 12.0001C4.7998 13.1267 5.7221 14.0401 6.8598 14.0401Z" stroke="white" stroke-opacity="0.7" stroke-width="1.5" stroke-linecap="round" stroke-linejoin="round"/>
</svg>
