<?xml version="1.0" encoding="utf-8"?>
<!-- Generator: Adobe Illustrator 25.2.3, SVG Export Plug-In . SVG Version: 6.00 Build 0)  -->
<svg version="1.1" id="Calque_1" xmlns="http://www.w3.org/2000/svg" xmlns:xlink="http://www.w3.org/1999/xlink" x="0px" y="0px"
	 viewBox="0 0 85 87" style="enable-background:new 0 0 85 87;" xml:space="preserve">
<style type="text/css">
	.st0{fill:#FF0054;}
	.st1{fill:#FFFFFF;}
	.st2{clip-path:url(#SVGID_2_);fill:#FF0054;}
</style>
<path class="st0" d="M40.5,12.5c0.5-0.1,1-0.3,1.6-0.4c3.4-0.6,6.4,1.1,7.9,4.4c1.3,2.8,0.3,6.3-2.1,8.4c-3.5,2.9-8.9,1.7-11-2.3
	c-1.6-3.1-0.7-7,2-9c0,0,0.1-0.1,0.1-0.1C39.4,13.1,39.9,12.8,40.5,12.5z"/>
<path class="st0" d="M36.9,27.5c2.9,2,5.9,2.5,9.2,1.8c-0.5,1.6-0.9,3-1.3,4.5c-1.7,5.6-3.3,11.1-5,16.7c-0.4,1.5-1.6,2.2-3,1.9
	c-1.4-0.3-2.3-1.5-2.3-3.1c0.1-1.5,0.3-3.1,0.5-4.6c0.6-5.6,1.2-11.1,1.8-16.7C36.8,27.9,36.8,27.7,36.9,27.5z"/>
<path class="st0" d="M41.7,55.1c0.1,0.1,0.3,0.3,0.4,0.3c0.2,0,0.4,0,0.5-0.1c0.1-0.1,0.3-0.3,0.3-0.4c0-0.2,0-0.4-0.1-0.5l-0.6-1.1
	c0-0.1-0.1-0.2-0.2-0.2c-0.1-0.1-0.1-0.1-0.2-0.1c-0.1,0-0.2,0-0.3,0c-0.1,0-0.2,0-0.3,0.1c-0.1,0-0.2,0.1-0.2,0.2
	c-0.1,0.1-0.1,0.1-0.1,0.2c0,0.1,0,0.2,0,0.3s0,0.2,0.1,0.3l0.5,1.1C41.6,55,41.6,55,41.7,55.1L41.7,55.1z M46.2,54.5
	c-0.1,0.1-0.1,0.3-0.1,0.4c0,0.2,0.1,0.3,0.2,0.4c0,0,0.1,0.1,0.1,0.1c0.1,0.1,0.3,0.1,0.5,0.1c0.2,0,0.3-0.1,0.4-0.3l0.7-1
	c0.1-0.1,0.1-0.2,0.1-0.2c0-0.1,0-0.2,0-0.3c0-0.1-0.1-0.2-0.1-0.2c0-0.1-0.1-0.1-0.2-0.2c-0.1,0-0.2-0.1-0.2-0.1
	c-0.1,0-0.2,0-0.3,0c-0.1,0-0.2,0.1-0.2,0.1c-0.1,0.1-0.1,0.1-0.2,0.2L46.2,54.5z M43.9,53.5c0,0.2,0,0.3,0.2,0.5
	c0.1,0.1,0.1,0.1,0.2,0.2c0.1,0,0.2,0.1,0.3,0.1c0.2,0,0.4,0,0.5-0.2c0.1-0.1,0.2-0.3,0.2-0.5l0.1-1.2c0-0.2-0.1-0.3-0.2-0.5
	c-0.1-0.1-0.3-0.2-0.4-0.2c-0.2,0-0.3,0-0.5,0.1C44.1,52,44,52.1,44,52.3L43.9,53.5z M47.3,64.9l-0.5-1.1c0-0.1-0.1-0.2-0.2-0.2
	c-0.1-0.1-0.1-0.1-0.2-0.1c-0.1,0-0.2,0-0.3,0c-0.1,0-0.2,0-0.3,0.1c-0.1,0-0.2,0.1-0.2,0.2c-0.1,0.1-0.1,0.2-0.1,0.2
	c0,0.1,0,0.2,0,0.3c0,0.1,0,0.2,0.1,0.3l0.5,1.1l0.1,0.1c0.1,0.1,0.3,0.3,0.4,0.3c0.2,0,0.4,0,0.5-0.1c0.1-0.1,0.3-0.3,0.3-0.4
	C47.5,65.2,47.5,65,47.3,64.9L47.3,64.9z M42.2,64.2c0-0.1,0.1-0.2,0.1-0.2c0-0.1,0-0.2,0-0.3c0-0.1-0.1-0.2-0.1-0.2
	c0-0.1-0.1-0.1-0.2-0.2c-0.1-0.1-0.3-0.1-0.5-0.1c-0.2,0-0.3,0.1-0.4,0.3l-0.7,1c-0.1,0.1-0.1,0.3-0.1,0.4c0,0.2,0.1,0.3,0.2,0.4
	c0,0,0.1,0.1,0.1,0.1c0.1,0,0.2,0.1,0.2,0.1c0.1,0,0.2,0,0.3,0c0.1,0,0.2-0.1,0.2-0.1c0.1,0,0.1-0.1,0.2-0.2L42.2,64.2z M44.5,65.2
	c0-0.2-0.1-0.3-0.2-0.5c-0.1-0.1-0.3-0.2-0.4-0.2c-0.2,0-0.3,0-0.5,0.1c-0.1,0.1-0.2,0.3-0.2,0.4l-0.1,1.2c0,0.2,0,0.4,0.2,0.5
	c0.1,0.1,0.3,0.2,0.5,0.2c0.2,0,0.4,0,0.5-0.2c0.1-0.1,0.2-0.3,0.2-0.5L44.5,65.2z"/>
<g>
	<path class="st0" d="M33.1,50.7c0.3,1.5,1.1,2.6,2.2,3.6c-0.7,0.1-1.3,0.2-1.9,0.4c-0.3,0.1-0.6,0.2-0.8,0.4c-1.2,1-2.2,2.1-3,3.5
		c-0.2,0.4-0.4,0.8-0.5,1.2c-0.5,1.6,0.5,2.9,2,2.9c0.9,0,1.8-0.2,2.7-0.5c1.7-0.5,3.1-1.6,4.7-2.4c2-1.1,4.1-2,6.4-2.3
		c1.7-0.2,3.3,0.1,4.6,1.2c1.9,1.5,2.6,4.3,1.7,6.6c-0.8,2.2-2.2,3.9-3.9,5.5c-1.9,1.8-3.9,3.3-6.1,4.6c-0.7,0.4-1.4,0.3-1.7-0.3
		c-0.3-0.6-0.1-1.3,0.6-1.8c2.1-1.3,4.1-2.7,5.9-4.5c1.1-1.1,2.1-2.2,2.8-3.7c0.5-1,0.6-2.1,0.2-3.1c-0.6-1.5-1.8-2.1-3.2-2.1
		c-1.7-0.1-3.2,0.5-4.7,1.2c-1.7,0.8-3.3,1.8-5,2.7c-1.6,0.8-3.3,1.4-5.1,1.3c-2.3,0-4.1-1.4-4.5-3.8c-0.2-1.3,0.2-2.6,0.8-3.7
		c0.8-1.5,2-2.8,3.2-4c0.6-0.6,1.2-1.3,1.7-1.9C32.7,51.4,32.9,51.1,33.1,50.7z"/>
	<path class="st1" d="M45.3,61.4h-1.5c-1.1,0-2-0.9-2-2v-0.8c0-1.1,0.9-2,2-2h1.5c1.1,0,2,0.9,2,2v0.8
		C47.4,60.5,46.5,61.4,45.3,61.4z"/>
	<g>
		<defs>
			<path id="SVGID_1_" d="M43.1,63.3l-2.2,0c-0.3,0-0.5-0.1-0.7-0.3c-0.2-0.2-0.3-0.4-0.3-0.7l0.1-6.7c0-0.3,0.1-0.5,0.3-0.7
				c0.2-0.2,0.4-0.3,0.7-0.3l3.1,0.1l-1.1,1.1c0,0-0.1,0.1-0.1,0.2c0,0.1,0,0.1,0,0.2c0,0.1,0,0.1,0,0.2c0,0.1,0.1,0.1,0.1,0.2
				l1.5,1.6L43,59.6c0,0-0.1,0.1-0.1,0.2c0,0.1,0,0.1,0,0.2c0,0.1,0,0.1,0,0.2c0,0.1,0.1,0.1,0.1,0.2l1.5,1.6L43.1,63.3z M48.5,62.4
				c0,0.3-0.1,0.5-0.3,0.7c-0.2,0.2-0.4,0.3-0.7,0.3l-3.2-0.1l1.1-1.1c0,0,0.1-0.1,0.1-0.2c0-0.1,0-0.1,0-0.2c0-0.1,0-0.1,0-0.2
				c0-0.1-0.1-0.1-0.1-0.2L44,59.9l1.6-1.5c0,0,0.1-0.1,0.1-0.2c0-0.1,0-0.1,0-0.2c0-0.1,0-0.1,0-0.2c0-0.1-0.1-0.1-0.1-0.2
				l-1.5-1.6l1.5-1.4l2.2,0c0.3,0,0.5,0.1,0.7,0.3c0.2,0.2,0.3,0.4,0.3,0.7L48.5,62.4z"/>
		</defs>
		<clipPath id="SVGID_2_">
			<use xlink:href="#SVGID_1_"  style="overflow:visible;"/>
		</clipPath>
		<path class="st2" d="M33.1,50.7c0.3,1.5,1.1,2.6,2.2,3.6c-0.7,0.1-1.3,0.2-1.9,0.4c-0.3,0.1-0.6,0.2-0.8,0.4c-1.2,1-2.2,2.1-3,3.5
			c-0.2,0.4-0.4,0.8-0.5,1.2c-0.5,1.6,0.5,2.9,2,2.9c0.9,0,1.8-0.2,2.7-0.5c1.7-0.5,3.1-1.6,4.7-2.4c2-1.1,4.1-2,6.4-2.3
			c1.7-0.2,3.3,0.1,4.6,1.2c1.9,1.5,2.6,4.3,1.7,6.6c-0.8,2.2-2.2,3.9-3.9,5.5c-1.9,1.8-3.9,3.3-6.1,4.6c-0.7,0.4-1.4,0.3-1.7-0.3
			c-0.3-0.6-0.1-1.3,0.6-1.8c2.1-1.3,4.1-2.7,5.9-4.5c1.1-1.1,2.1-2.2,2.8-3.7c0.5-1,0.6-2.1,0.2-3.1c-0.6-1.5-1.8-2.1-3.2-2.1
			c-1.7-0.1-3.2,0.5-4.7,1.2c-1.7,0.8-3.3,1.8-5,2.7c-1.6,0.8-3.3,1.4-5.1,1.3c-2.3,0-4.1-1.4-4.5-3.8c-0.2-1.3,0.2-2.6,0.8-3.7
			c0.8-1.5,2-2.8,3.2-4c0.6-0.6,1.2-1.3,1.7-1.9C32.7,51.4,32.9,51.1,33.1,50.7z"/>
	</g>
</g>
</svg>
