<svg xmlns="http://www.w3.org/2000/svg" xmlns:xlink="http://www.w3.org/1999/xlink" viewBox="0 0 384.7 108.75"><defs><style>.cls-1{fill:#fff;}.cls-2{fill:#ff0054;}</style><symbol id="Logo" data-name="Logo" viewBox="0 0 384.7 108.75"><path class="cls-1" d="M72.51,74.43a12.56,12.56,0,0,1-2.59-8.26,22.69,22.69,0,0,1,2.59-10.6,22,22,0,0,1,6.89-8,15.57,15.57,0,0,1,9.14-3.05,2.71,2.71,0,0,1,2.06.6,5.08,5.08,0,0,1,.88,2.13,17,17,0,0,1,3.08-.28c2.28,0,3.43.82,3.43,2.45a52.37,52.37,0,0,1-1,7,67.24,67.24,0,0,0-1.61,11.2,2.54,2.54,0,0,0,.52,1.68,1.7,1.7,0,0,0,1.37.63,5.34,5.34,0,0,0,3.22-1.71,61,61,0,0,0,5.11-5.57,2.47,2.47,0,0,1,1.89-1,1.62,1.62,0,0,1,1.43.84,4.34,4.34,0,0,1,.53,2.31,6.47,6.47,0,0,1-1.33,4.34,35.62,35.62,0,0,1-6.09,6,10.43,10.43,0,0,1-6.23,2.45A6.54,6.54,0,0,1,91.51,76a9.61,9.61,0,0,1-2.9-4.31Q85,77.58,79.44,77.58A8.5,8.5,0,0,1,72.51,74.43ZM84.9,68.69a11.81,11.81,0,0,0,2-4.83L89.52,51a8.49,8.49,0,0,0-5.43,2.21,14.79,14.79,0,0,0-4,5.63,19,19,0,0,0-1.47,7.42,5,5,0,0,0,.87,3.22A3,3,0,0,0,82,70.51,3.87,3.87,0,0,0,84.9,68.69Z"/><path class="cls-1" d="M105,74.78c-.72-1.87-1.08-4.85-1.08-9a56.93,56.93,0,0,1,2.59-17.29,5.24,5.24,0,0,1,2.06-3,7.3,7.3,0,0,1,4-1,4,4,0,0,1,2,.35,1.45,1.45,0,0,1,.56,1.33,26.58,26.58,0,0,1-1,5q-.7,2.81-1.12,4.9a48.56,48.56,0,0,0-.7,5.18,39.64,39.64,0,0,1,5.18-9.8A20.4,20.4,0,0,1,123,46.22a10.29,10.29,0,0,1,5.08-1.61q4.54,0,4.55,4.55a35,35,0,0,1-.63,4.41,24.69,24.69,0,0,0-.56,3.5c0,1.63.58,2.45,1.75,2.45s3-1,5-3.08a2.68,2.68,0,0,1,1.89-.91,1.63,1.63,0,0,1,1.43.81,3.84,3.84,0,0,1,.53,2.13,5.66,5.66,0,0,1-1.4,4.06A19.25,19.25,0,0,1,136.1,66a11.48,11.48,0,0,1-5.56,1.43,7.72,7.72,0,0,1-5.64-1.89A6.84,6.84,0,0,1,123,60.43a10.68,10.68,0,0,1,.21-2.1c.09-.93.14-1.56.14-1.89,0-.75-.26-1.12-.77-1.12-.7,0-1.63.78-2.77,2.35a32.84,32.84,0,0,0-3.39,6.19A50.28,50.28,0,0,0,113.67,72a11,11,0,0,1-1.79,4.45,4,4,0,0,1-3.18,1.15A3.82,3.82,0,0,1,105,74.78Z"/><path class="cls-1" d="M172.67,56.65a4.82,4.82,0,0,1,.49,2.31c0,2.24-.67,3.57-2,4a31.86,31.86,0,0,1-9.23,1.68,17.54,17.54,0,0,1-5.25,9.42,13,13,0,0,1-8.9,3.53,12.45,12.45,0,0,1-7.17-2,12.93,12.93,0,0,1-4.52-5.39,17.37,17.37,0,0,1-1.54-7.28,21.4,21.4,0,0,1,2-9.48,16,16,0,0,1,5.6-6.51,14.06,14.06,0,0,1,7.91-2.35,10.91,10.91,0,0,1,8.58,3.68,15.78,15.78,0,0,1,3.82,9.06,41.79,41.79,0,0,0,7.83-1.4,4.34,4.34,0,0,1,1-.14A1.53,1.53,0,0,1,172.67,56.65ZM152.2,68.34a10,10,0,0,0,2.2-5.25,9.68,9.68,0,0,1-3.32-3.85,11.39,11.39,0,0,1-1.16-5,12.13,12.13,0,0,1,.21-2.24h-.35a5.5,5.5,0,0,0-4.65,2.7q-1.86,2.69-1.86,7.59a9.77,9.77,0,0,0,1.51,5.88,4.35,4.35,0,0,0,3.53,2A5.09,5.09,0,0,0,152.2,68.34Z"/><path class="cls-1" d="M168.37,74.78c-.72-1.87-1.09-4.85-1.09-9a57.25,57.25,0,0,1,2.59-17.29,5.26,5.26,0,0,1,2.07-3,7.29,7.29,0,0,1,4-1,4,4,0,0,1,2,.35,1.43,1.43,0,0,1,.56,1.33,26.58,26.58,0,0,1-1,5c-.46,1.87-.84,3.49-1.12,4.87a49.16,49.16,0,0,0-.7,5.14,37.88,37.88,0,0,1,4.52-9.24,21.19,21.19,0,0,1,5.39-5.63,9.44,9.44,0,0,1,5.21-1.86,4.5,4.5,0,0,1,3.47,1.12,5,5,0,0,1,1,3.43,44.09,44.09,0,0,1-1.33,8.12c-.37,1.68-.63,2.94-.77,3.78q3.51-8.61,7.77-12.53t8-3.92c3,0,4.55,1.52,4.55,4.55A55.93,55.93,0,0,1,211.87,59a49.29,49.29,0,0,0-1.33,8c0,1.87.68,2.8,2,2.8a5.49,5.49,0,0,0,3.33-1.71A56.42,56.42,0,0,0,221,62.6a2.47,2.47,0,0,1,1.89-1,1.62,1.62,0,0,1,1.44.84,4.34,4.34,0,0,1,.52,2.31,6.42,6.42,0,0,1-1.33,4.34,31,31,0,0,1-6.47,6.09,13.57,13.57,0,0,1-7.88,2.38,6.83,6.83,0,0,1-5.39-2.06,8.83,8.83,0,0,1-1.82-6,44.05,44.05,0,0,1,1-7,35.87,35.87,0,0,0,.91-6.09c0-.75-.25-1.12-.77-1.12s-1.47.78-2.59,2.35a34.1,34.1,0,0,0-3.36,6.19A50.28,50.28,0,0,0,194.44,72a10.76,10.76,0,0,1-1.78,4.48,4.19,4.19,0,0,1-3.26,1.12,3.7,3.7,0,0,1-3.46-2.2A11.44,11.44,0,0,1,184.78,70a61.91,61.91,0,0,1,.7-7.7,58.61,58.61,0,0,0,.56-5.88c0-.75-.25-1.12-.77-1.12-.7,0-1.58.84-2.66,2.52a36.3,36.3,0,0,0-3.11,6.44,61.28,61.28,0,0,0-2.42,7.7,10.88,10.88,0,0,1-1.78,4.45,4,4,0,0,1-3.19,1.15A3.82,3.82,0,0,1,168.37,74.78Z"/><path class="cls-1" d="M251.88,62.46a4.34,4.34,0,0,1,.52,2.31,6.42,6.42,0,0,1-1.33,4.34,25.4,25.4,0,0,1-7.31,5.81,20.33,20.33,0,0,1-10.12,2.66q-7.35,0-11.41-4t-4.06-10.92a20.26,20.26,0,0,1,2-9,16.6,16.6,0,0,1,5.64-6.62A14.18,14.18,0,0,1,234,44.61,8.86,8.86,0,0,1,240.5,47,8.74,8.74,0,0,1,243,53.57a11.32,11.32,0,0,1-3.46,8.3q-3.47,3.47-11.73,5.49,1.76,3.23,6.65,3.22a15.33,15.33,0,0,0,7.18-2.2,23.74,23.74,0,0,0,7-5.78,2.47,2.47,0,0,1,1.89-1A1.62,1.62,0,0,1,251.88,62.46Zm-23.45-8a14,14,0,0,0-1.79,7.28v.14A15.74,15.74,0,0,0,233.15,59a5.77,5.77,0,0,0,2.38-4.55,3,3,0,0,0-.73-2.13,2.57,2.57,0,0,0-2-.81C231.08,51.47,229.62,52.48,228.43,54.48Z"/><path class="cls-1" d="M279.39,62.46a4.34,4.34,0,0,1,.52,2.31,6.42,6.42,0,0,1-1.33,4.34A29.79,29.79,0,0,1,272,75.2a14.4,14.4,0,0,1-8.19,2.38q-14.28,0-14.28-20.09,0-3.08.21-6.23H247a3.88,3.88,0,0,1-2.83-.77,3.45,3.45,0,0,1-.74-2.45q0-3.91,3.15-3.92h4a68.87,68.87,0,0,1,3.64-14.07,32,32,0,0,1,5.92-10.15q3.47-3.78,7.45-3.78a5.23,5.23,0,0,1,4.62,2.59,11.75,11.75,0,0,1,1.68,6.51q0,10.85-9.1,18.9h7.84a2.18,2.18,0,0,1,1.61.49,2.58,2.58,0,0,1,.49,1.82q0,4.83-7.91,4.83h-8.54c-.09,2.34-.14,4.15-.14,5.46q0,7.28,1.72,10.22a5.82,5.82,0,0,0,5.42,2.94,8.37,8.37,0,0,0,5.32-1.82,42,42,0,0,0,5.46-5.46,2.47,2.47,0,0,1,1.89-1A1.62,1.62,0,0,1,279.39,62.46Zm-16-37a36.75,36.75,0,0,0-2.45,7.28A99,99,0,0,0,259,43.07a23.9,23.9,0,0,0,6.2-8A19.56,19.56,0,0,0,267.24,27c0-2.75-.51-4.13-1.54-4.13C265,22.84,264.22,23.72,263.36,25.47Z"/><path class="cls-1" d="M275.47,74.78c-.73-1.87-1.09-4.85-1.09-9A57.25,57.25,0,0,1,277,48.53a5.26,5.26,0,0,1,2.07-3,7.26,7.26,0,0,1,4-1,4,4,0,0,1,2,.35,1.43,1.43,0,0,1,.56,1.33,26.58,26.58,0,0,1-1.05,5q-.7,2.81-1.12,4.9a51.29,51.29,0,0,0-.7,5.18,40,40,0,0,1,5.18-9.8,20.42,20.42,0,0,1,5.64-5.39,10.25,10.25,0,0,1,5.07-1.61c3,0,4.55,1.52,4.55,4.55a35,35,0,0,1-.63,4.41,26.38,26.38,0,0,0-.56,3.5c0,1.63.59,2.45,1.75,2.45q2,0,5-3.08a2.72,2.72,0,0,1,1.89-.91,1.63,1.63,0,0,1,1.44.81,3.84,3.84,0,0,1,.52,2.13,5.61,5.61,0,0,1-1.4,4.06A19,19,0,0,1,306.62,66a11.52,11.52,0,0,1-5.57,1.43,7.71,7.71,0,0,1-5.63-1.89,6.81,6.81,0,0,1-1.93-5.11,10.68,10.68,0,0,1,.21-2.1c.1-.93.14-1.56.14-1.89,0-.75-.25-1.12-.77-1.12-.7,0-1.62.78-2.76,2.35a32.26,32.26,0,0,0-3.4,6.19A50.28,50.28,0,0,0,284.18,72a11,11,0,0,1-1.78,4.45,4,4,0,0,1-3.19,1.15A3.82,3.82,0,0,1,275.47,74.78Z"/><path class="cls-1" d="M332.23,65.78a24,24,0,0,1-3.77,2.59,15.25,15.25,0,0,1-7.18,2.21c-3.27,0-5.48-1.07-6.65-3.22q8.26-2,11.73-5.49a11.32,11.32,0,0,0,3.46-8.3,8.39,8.39,0,0,0-9-9,14.18,14.18,0,0,0-8.15,2.45,16.52,16.52,0,0,0-5.64,6.62,20.26,20.26,0,0,0-2,9q0,6.93,4.06,10.92t11.41,4a20.08,20.08,0,0,0,4.47-.5,4.53,4.53,0,0,1,2.38-2.6,4.66,4.66,0,0,1,1.81-2.55,4.86,4.86,0,0,1,1.25-2.09,4.79,4.79,0,0,1,1.94-3A6.28,6.28,0,0,1,332.23,65.78Zm-18.72-4a14,14,0,0,1,1.79-7.28c1.19-2,2.64-3,4.37-3a2.57,2.57,0,0,1,2,.81,3,3,0,0,1,.73,2.13A5.77,5.77,0,0,1,320,59a15.86,15.86,0,0,1-6.51,2.94Z"/><path class="cls-2" d="M70.92,33.17q-5.4,5.52-15.75,8a16.25,16.25,0,0,1,8.46,5,12.13,12.13,0,0,1,2.88,8,18.38,18.38,0,0,1-4.45,12.33q-4.47,5.22-13,8T28.44,77.31q-4.5,0-7.2-.27a4.34,4.34,0,0,1-2.16,3.78,10.08,10.08,0,0,1-5.31,1.26c-2.16,0-3.65-.48-4.45-1.44a5.8,5.8,0,0,1-1-4.23A257.17,257.17,0,0,1,11.43,50a260.61,260.61,0,0,1,5.94-26.69,4.68,4.68,0,0,1,2.52-3.15,11.59,11.59,0,0,1,4.95-.9q5.49,0,5.49,3.06a9.25,9.25,0,0,1-.54,2.88,159.16,159.16,0,0,0-4.68,19,228.61,228.61,0,0,0-3.33,22.91q4.32.36,7,.36,12.6,0,18.5-3.64t5.89-9.32a8.22,8.22,0,0,0-3.37-6.66q-3.37-2.7-11.3-3A3.5,3.5,0,0,1,36,44a3.88,3.88,0,0,1-.72-2.61,7.5,7.5,0,0,1,1.08-4.23q1.08-1.62,4-1.71a40.49,40.49,0,0,0,11.57-1.89A19.43,19.43,0,0,0,60,28.75a10.12,10.12,0,0,0,3-7.24q0-5.22-5.13-8.24t-15.75-3a70.35,70.35,0,0,0-18.63,2.47A61.7,61.7,0,0,0,8.19,19,10.08,10.08,0,0,1,3.33,20.7,2.93,2.93,0,0,1,.85,19.58,4.56,4.56,0,0,1,0,16.74a7.55,7.55,0,0,1,1-3.87q.95-1.62,4.54-3.69A67,67,0,0,1,23.22,2.43,89.15,89.15,0,0,1,44,0Q60.3,0,68.31,5.49t8,14.49A18.24,18.24,0,0,1,70.92,33.17Z"/><path class="cls-2" d="M353,108.71c-1.37-1.09-1.72-2-1.19-3.13a3.65,3.65,0,0,1,1.18-1.26,58.25,58.25,0,0,0,11.3-11.48,18.94,18.94,0,0,0,3.15-6.36c1.21-4.67-2.14-9.2-7.88-8.4a23.87,23.87,0,0,0-8.69,3.51c-3.1,1.81-5.65,4.38-8.67,6.32a23.32,23.32,0,0,1-9.76,4c-6.16.73-11.16-4-9.82-10.46a23,23,0,0,1,5.45-10.25,29.46,29.46,0,0,0,4-6.33,11.53,11.53,0,0,0,5.34,5.93c-1.26.41-2.42.82-3.6,1.15a3,3,0,0,0-1.48,1,28.47,28.47,0,0,0-4.77,7.35,8.88,8.88,0,0,0-.72,2.74,4,4,0,0,0,4,4.5,11.91,11.91,0,0,0,5.95-1.59,33.81,33.81,0,0,0,6.56-4.35c4.16-3.38,8.63-6.22,13.91-7.53a12.39,12.39,0,0,1,9.42,1A11.18,11.18,0,0,1,372,86.5c-.86,4.37-3.16,8-5.9,11.34a66.83,66.83,0,0,1-10.64,10.22,10.38,10.38,0,0,1-1.32.69Z"/><path class="cls-2" d="M370,44.06A14.49,14.49,0,1,1,384.7,29.78,14.49,14.49,0,0,1,370,44.06Z"/><path class="cls-2" d="M365.78,45.73l-7.08,6.16L340.55,67.68a3.94,3.94,0,0,1-5.06.27A4,4,0,0,1,334.25,63a8.57,8.57,0,0,1,1-1.55l19.37-24.33c.25-.31.42-.73.78,0a16.43,16.43,0,0,0,10,8.43C365.51,45.58,365.62,45.65,365.78,45.73Z"/></symbol></defs><g id="Calque_2" data-name="Calque 2"><g id="Calque_1-2" data-name="Calque 1"><use width="384.7" height="108.75" xlink:href="#Logo"/></g></g></svg>