<?xml version="1.0" encoding="utf-8"?>
<!-- Generator: Adobe Illustrator 23.1.0, SVG Export Plug-In . SVG Version: 6.00 Build 0)  -->
<svg version="1.1" id="Calque_1" xmlns="http://www.w3.org/2000/svg" xmlns:xlink="http://www.w3.org/1999/xlink" x="0px" y="0px"
	 viewBox="0 0 73.79 130.47" style="enable-background:new 0 0 73.79 130.47;" xml:space="preserve">
<style type="text/css">
	.st0{fill:#FE0054;}
</style>
<g>
	<g>
		<path class="st0" d="M36.94,130.47c-7.22-11.7-13.56-23.37-19.27-35.37C11.02,81.12,5.01,66.89,1.75,51.66
			c-1.77-8.28-2.69-16.58-0.32-24.94C5.98,10.67,22.24-1.06,38.49,0.08C56.75,1.36,71.1,14.4,73.4,31.77
			c1.34,10.16-0.94,19.89-3.82,29.47c-6.15,20.4-15.62,39.35-26.01,57.86C41.49,122.79,39.3,126.42,36.94,130.47z M21.82,36.65
			c-0.03,8.42,6.56,15.16,14.87,15.21c8.55,0.05,15.26-6.55,15.29-15.04c0.03-8.48-6.78-15.37-15.12-15.31
			C28.55,21.57,21.85,28.31,21.82,36.65z"/>
	</g>
</g>
</svg>
